<svg id="レイヤー_1" data-name="レイヤー 1" xmlns="http://www.w3.org/2000/svg" viewBox="0 0 800 800"><defs><style>.cls-1{fill:#68b5ae;}</style></defs><title>icon_logo_blue</title><path class="cls-1" d="M411.94,443.9c-9.44-9.45-18.21-19.57-27.64-29-8.12-8.15-16.9-15.66-25.11-23.72-13.92-13.67-27.62-27.57-41.44-41.35-1.62-1.61-3.39-3.07-5.52-5-2.6,2.6-5.05,4.61-6.95,7-3.36,4.31-6.1,4.18-10.68,1C279.51,342.26,262.77,336,244,338.69c-6.78,1-14.62,2.83-19.48,7.12a242.14,242.14,0,0,0-30.44,32.1c-31.81,40.65-51.69,86.73-60.1,137.7-.43,2.61-.93,5.2-1.46,8.17-7.43-4.7-11.47-10-9.94-18.48.83-4.63.57-9.43,1-14.14,6.29-63.69,27.68-122.27,61-176.53,11.09-18.07,24.28-34.87,36.7-52.11,2.4-3.33,3.63-5.6.7-9.66A33.76,33.76,0,0,1,269,205.74c4,2.83,6.36,2.2,9.65-.54a433.46,433.46,0,0,1,76.12-50.58c52.09-27.34,107.09-44.64,166.15-48.28,8.65-.53,14.29,2.25,18.74,9.42-.71.52-1,.89-1.33.95-3.49.63-7,1.17-10.48,1.82C466.07,130,412.41,156.95,367.64,201.4c-9.44,9.37-13.15,20.18-13.33,32.84-.23,17.18,6,32.19,15.9,45.85a5.67,5.67,0,0,1-.86,7.67c-2.91,2.51-5.5,5.41-8.24,8.16,1.32,1.65,2,2.63,2.78,3.47,16.83,17.4,33.47,35,50.57,52.12,15,15,30.72,29.23,45.68,44.25q58.31,58.54,116.57,117.13c57,57.3,154.89,26.26,168.55-53.4a351.77,351.77,0,0,0,5-59.49V49.69H405.77c-192.1,0-352.82,152.25-356,344.33C46.46,590.23,204.53,750.31,400,750.31A349.91,349.91,0,0,0,495.94,737c73-20.77,96.73-112.33,43.07-166Q475.46,507.48,411.94,443.9Z"/></svg>