<svg id="レイヤー_1" data-name="レイヤー 1" xmlns="http://www.w3.org/2000/svg" viewBox="0 0 257.96947 57.61368"><defs><style>.cls-1{fill:#fff;}</style></defs><title>HackzInc_logo_TypeA_W</title><path class="cls-1" d="M519.54212,491.72006h0l-.0012.00124a29.12656,29.12656,0,0,0-3.47931,4.14192l-.00758.01127q-.37993.54972-.735,1.117l-.02717.045q-.34333.552-.66287,1.11945c-.0159.02832-.0305.05738-.0463.08575-.20371.36625-.40109.73625-.58886,1.11206-.02351.04708-.04491.09527-.06819.14249-.17724.35969-.34948.72225-.51175,1.09021-.02929.06635-.05544.13436-.08422.201-.15173.35142-.29986.70464-.43764,1.06318-.03488.09069-.06542.18352-.09943.27467-.126.33816-.24986.67725-.36311,1.02132-.03853.11694-.07138.23642-.10843.354-.10137.32231-.20251.64467-.29256.97183-.04085.14808-.07443.29912-.11292.44822-.07758.301-.15672.60128-.2245.90608-.0408.18311-.07273.36944-.11.55384-.05562.276-.11453.5506-.162.82939-.038.22274-.06561.449-.09837.67355-.03562.24473-.07628.48781-.10562.73453-.03428.288-.05627.57971-.08182.87033-.0165.18786-.03937.37382-.05216.56275q-.04908.72325-.06178,1.45641v0h0A28.78708,28.78708,0,0,0,512.6406,521.563q.47321,1.34505,1.07329,2.62673a28.79135,28.79135,0,0,0,2.863,4.82807q.4139.56434.85416,1.10749.88023,1.086,1.86119,2.08255a28.83229,28.83229,0,0,0,28.41932,7.50309,8.07887,8.07887,0,0,0,5.35756-4.8357,8.33556,8.33556,0,0,0,.5141-1.98091,8.07974,8.07974,0,0,0-2.3296-6.831q-5.22654-5.22507-10.44969-10.45347c-.77625-.77713-1.49762-1.60911-2.273-2.38721-.66809-.67041-1.38946-1.2874-2.065-1.95074-1.145-1.1244-2.27162-2.26736-3.408-3.40049-.13311-.1327-.27907-.25246-.454-.40959a6.95022,6.95022,0,0,0-.57135.57938c-.27611.35461-.50163.34375-.878.08012a5.69179,5.69179,0,0,0-4.15666-1.16279,3.1949,3.1949,0,0,0-1.602.58553,19.91393,19.91393,0,0,0-2.50272,2.63976,24.58647,24.58647,0,0,0-4.94178,11.32333c-.03534.21429-.07628.42766-.12.6718a1.39476,1.39476,0,0,1-.81752-1.51944c.06833-.38034.04713-.77584.08524-1.16265a33.85791,33.85791,0,0,1,5.0146-14.51614c.91209-1.48621,1.99652-2.86736,3.01756-4.28542.19729-.274.29838-.46051.05762-.79437a2.78232,2.78232,0,0,1-.23143-.39018c-.02061-.04145-.0378-.08382-.05609-.12586a2.7086,2.7086,0,0,1-.10817-.29205c-.01413-.04657-.02906-.093-.04061-.13995a2.68984,2.68984,0,0,1-.06043-.34088c-.00324-.02879-.01044-.0573-.01275-.08613a2.70213,2.70213,0,0,1,.0005-.40478c.004-.057.0129-.11352.02047-.17017.01095-.08288.02532-.16517.0439-.24686.014-.06126.02873-.12234.04694-.18273.02481-.08243.05609-.163.08871-.24326.0213-.05226.03853-.10585.06311-.157a2.83587,2.83587,0,0,1,.548-.77695,2.73678,2.73678,0,0,1,3.55542-.31815.54393.54393,0,0,0,.79381-.0444,35.64421,35.64421,0,0,1,6.25953-4.15915,33.60811,33.60811,0,0,1,13.66241-3.9705,1.51066,1.51066,0,0,1,1.54082.77446c-.05835.04278-.08145.07291-.10913.07794-.287.05193-.57541.09606-.862.14942a24.61167,24.61167,0,0,0-13.17076,6.81527,3.65663,3.65663,0,0,0-1.0958,2.7007,6.20451,6.20451,0,0,0,1.30745,3.7703.46667.46667,0,0,1-.07106.631c-.23965.20657-.452.44484-.67775.67064.10811.13583.16226.21664.2288.28548,1.38382,1.4311,2.75268,2.87711,4.15882,4.286,1.23126,1.23366,2.52605,2.404,3.75607,3.63881q4.795,4.81381,9.586,9.63161a8.18,8.18,0,0,0,13.86053-4.39127A28.92876,28.92876,0,0,0,568.62891,512V483.19316H540.29622A29.50358,29.50358,0,0,0,519.54212,491.72006Z" transform="translate(-511.01527 -483.19316)"/><path class="cls-1" d="M605.47481,496.23739a18.60094,18.60094,0,0,0,.86314-3.01349V499.746h2.93944v-8.15713c.25729,1.17577.67988,2.4256.67988,2.4256l.88183-2.53555v1.21242h2.86615a16.63056,16.63056,0,0,1-3.748,3.69263l1.28647,2.99479a10.28675,10.28675,0,0,0,3.12269-4.02322V499.746h2.93944v-4.39046a13.662,13.662,0,0,0,2.3882,4.02322l1.35978-3.23339a17.60757,17.60757,0,0,1-3.08679-3.454H620.65v-3.12268h-3.34408V488.2822h2.79285v-3.04939h-2.79285v-2.02095h-2.93944v2.02095h-.58789c.12865-.77188.184-1.32312.184-1.32312l-2.35155-.51384a10.39467,10.39467,0,0,1-.95513,3.67393v-1.41437h-1.37847v-2.44355H606.338v2.44355h-1.57967v2.75544h1.52507a13.589,13.589,0,0,1-1.89232,4.46451Zm7.5139-7.95519h1.37772v1.28648h-2.021A6.99664,6.99664,0,0,0,612.98871,488.2822Zm-2.70084.12865,1.45176,1.15783h-.90053v1.10173a10.833,10.833,0,0,1-1.41437-2.25956Z" transform="translate(-511.01527 -483.19316)"/><path class="cls-1" d="M631.6276,498.33165v-3.01274s-1.23112.2199-3.05013.45924v-2.2416h2.389v-2.93944h-7.3673v2.93944h2.4069v2.5535c-1.01048.092-2.09426.20194-3.14214.20194l.47794,3.05014A71.95435,71.95435,0,0,0,631.6276,498.33165Z" transform="translate(-511.01527 -483.19316)"/><path class="cls-1" d="M633.96046,498.00106a3.36794,3.36794,0,0,0,2.53555,1.78161c.99178,0,1.9843-.84518,2.77414-2.77414l-1.34107-3.23339c-.67989,1.46972-1.08378,2.13166-1.43307,2.13166-.2386,0-.44129-.29395-.66119-.86388a19.11727,19.11727,0,0,1-1.19448-5.80559h3.61933v-1.68961l1.08378-.86388a35.6731,35.6731,0,0,0-2.44355-3.27l-2.16756,1.45177c.40389.42259.99178,1.06508,1.30442,1.43232h-1.543v-3.10473H631.5543v3.10473h-8.54307v2.93944h8.72632C631.7929,492.50812,632.56478,495.92475,633.96046,498.00106Z" transform="translate(-511.01527 -483.19316)"/><path class="cls-1" d="M644.13032,489.47668v1.04713H654.9696V489.348c.55124.2386,1.06508.44054,1.48767.58789l1.21243-2.90279c-4.26182-1.43307-6.15413-2.90279-6.87066-3.82127H647.8596c-.77189,1.10247-2.44355,2.53554-6.72407,3.96787l1.08378,3.03143C642.88125,489.99127,643.52374,489.734,644.13032,489.47668Zm5.3456-3.52733a10.7593,10.7593,0,0,0,2.46224,1.89231h-4.7951A14.12009,14.12009,0,0,0,649.47592,485.94935Z" transform="translate(-511.01527 -483.19316)"/><path class="cls-1" d="M641.63142,496.31069l.38595,2.93944a74.32549,74.32549,0,0,0,12.199-.75318c.31189.42259.62454.84518.93643,1.28572l2.4802-2.03891c-1.10248-1.35977-2.3149-2.71879-3.06809-3.50938h2.86614v-2.66344H641.39283v2.66344h3.87662c-.38594.56994-.90053,1.37847-1.45177,2.07631Zm7.294-2.07631H652.636l-1.26777.86388s.34929.386.80853.91849c-1.04713.0733-2.7188.20194-4.53781.20194A18.76126,18.76126,0,0,0,648.92542,494.23438Z" transform="translate(-511.01527 -483.19316)"/><path class="cls-1" d="M659.49918,491.93818l.86314,3.08679a9.07939,9.07939,0,0,0,1.635-.93718v5.67693h2.93944v-6.30147a6.21747,6.21747,0,0,0,1.929,1.635l1.50637-2.57219a8.05656,8.05656,0,0,1-2.81079-1.78162A12.563,12.563,0,0,0,667.215,488.007v-2.62755h-2.27826v-2.16755h-2.93944v2.16755h-2.00226v2.7562h4.02322A10.02673,10.02673,0,0,1,659.49918,491.93818Z" transform="translate(-511.01527 -483.19316)"/><polygon class="cls-1" points="162.189 7.661 164.779 7.661 164.779 4.722 162.189 4.722 162.189 0.019 159.249 0.019 159.249 4.722 156.438 4.722 156.438 7.661 159.249 7.661 159.249 13.246 155.704 13.246 155.704 16.186 165.036 16.186 165.036 13.246 162.189 13.246 162.189 7.661"/><polygon class="cls-1" points="96.294 23.83 70.741 57.614 81.037 57.614 106.591 23.83 96.294 23.83"/><polygon class="cls-1" points="102.158 57.614 112.454 57.614 114.187 38.308 103.89 38.308 102.158 57.614"/><polygon class="cls-1" points="199.34 23.83 197.123 26.725 185.316 26.725 187.534 23.83 175.628 23.83 166.386 35.896 178.292 35.896 182.606 30.264 194.412 30.264 173.465 57.614 185.369 57.614 211.246 23.83 199.34 23.83"/><polygon class="cls-1" points="132.314 57.614 143.897 57.614 160.837 35.896 149.254 35.896 132.314 57.614"/><polygon class="cls-1" points="144.442 35.896 138.255 35.896 129.206 47.497 135.393 47.497 144.442 35.896"/><polygon class="cls-1" points="128.267 35.896 119.218 47.497 125.405 47.497 134.454 35.896 128.267 35.896"/><polygon class="cls-1" points="239.958 23.842 213.614 57.614 231.626 57.614 257.969 23.842 239.958 23.842"/><polygon class="cls-1" points="226.439 34.738 234.938 23.842 229.127 23.842 220.627 34.738 226.439 34.738"/><polygon class="cls-1" points="225.557 23.842 219.745 23.842 211.246 34.738 217.057 34.738 225.557 23.842"/></svg>